<?xml version="1.0" standalone="no"?>
<!DOCTYPE svg PUBLIC "-//W3C//DTD SVG 20010904//EN"
 "http://www.w3.org/TR/2001/REC-SVG-20010904/DTD/svg10.dtd">
<svg version="1.0" xmlns="http://www.w3.org/2000/svg"
 width="2160.000000pt" height="1620.000000pt" viewBox="0 0 2160.000000 1620.000000"
 preserveAspectRatio="xMidYMid meet">

<g transform="translate(0.000000,1620.000000) scale(0.100000,-0.100000)"
fill="#000000" stroke="none">
<path d="M0 8100 l0 -8100 10800 0 10800 0 0 8100 0 8100 -10800 0 -10800 0 0
-8100z m1268 2303 c10 -16 254 -433 542 -928 287 -495 554 -953 592 -1018 l70
-118 602 1043 603 1043 90 3 90 3 6 -692 c4 -381 7 -998 7 -1371 l0 -678 -115
0 -115 0 -2 1140 -3 1140 -555 -960 -555 -960 -59 2 -59 3 -556 952 -556 952
-3 -1135 -2 -1134 -110 0 -110 0 0 1370 0 1370 89 0 c86 0 90 -1 109 -27z
m4949 15 c12 -15 1253 -2712 1253 -2722 0 -4 -55 -5 -121 -4 l-122 3 -560
1238 c-308 680 -564 1234 -568 1230 -4 -5 -258 -563 -565 -1240 l-558 -1233
-118 0 c-65 0 -118 3 -118 7 0 10 1241 2706 1252 2721 7 8 43 12 113 12 70 0
106 -4 112 -12z m2283 -823 c0 -529 4 -871 11 -932 16 -142 53 -276 105 -383
38 -77 62 -110 128 -176 66 -66 99 -90 176 -128 159 -78 221 -90 460 -90 180
0 215 3 285 22 270 75 445 237 525 489 64 200 63 172 67 1146 l4 887 110 0
110 0 -4 -922 c-4 -889 -4 -926 -24 -1013 -28 -124 -57 -206 -104 -298 -172
-339 -515 -527 -966 -527 -549 0 -924 261 -1055 734 -50 181 -51 205 -55 1129
-3 478 -2 875 1 883 4 11 30 14 116 14 l110 0 0 -835z m3480 360 l0 -225 320
0 320 0 0 -90 0 -90 -320 0 -321 0 3 -707 c3 -697 3 -709 25 -765 55 -146 156
-209 339 -210 107 -1 175 17 258 67 32 19 60 34 61 33 1 -2 21 -37 44 -79 l41
-76 -53 -37 c-113 -78 -299 -118 -460 -98 -211 26 -340 108 -417 266 -59 119
-60 133 -60 904 l0 702 -190 0 -190 0 0 90 0 90 188 2 187 3 3 223 2 222 110
0 110 0 0 -225z m2762 45 c306 -50 649 -245 868 -495 152 -172 249 -359 308
-595 24 -95 26 -122 26 -290 0 -174 -2 -192 -31 -301 -58 -217 -126 -356 -269
-545 -69 -91 -1035 -1093 -1074 -1114 -10 -6 -25 -7 -34 -4 -8 3 -237 233
-508 511 -527 541 -622 650 -716 831 -132 253 -186 543 -148 801 19 123 76
311 124 407 203 403 650 729 1092 797 175 28 170 28 362 -3z m5728 -358 l0
-107 -95 -3 c-111 -3 -221 -29 -313 -74 -91 -45 -206 -159 -254 -253 -94 -183
-98 -219 -98 -927 l0 -588 -115 0 -115 0 0 1020 0 1020 110 0 110 0 0 -207 1
-208 32 60 c18 35 68 96 117 146 72 73 100 94 180 133 125 61 250 91 393 95
l47 1 0 -108z m-3797 -574 c4 -733 4 -726 72 -873 101 -220 334 -339 630 -321
207 12 350 71 476 196 86 86 144 189 181 325 22 78 22 97 26 708 l3 627 110 0
109 0 0 -1020 0 -1020 -105 0 -105 0 -2 202 -3 202 -39 -63 c-95 -155 -265
-274 -466 -327 -100 -26 -252 -37 -363 -25 -140 15 -216 36 -322 85 -239 112
-375 318 -415 626 -5 41 -10 359 -10 708 l0 632 109 0 109 0 5 -662z m-11763
-2943 l0 -175 89 0 88 0 132 175 132 175 45 0 c24 0 44 -1 44 -3 0 -1 -65 -88
-144 -192 l-144 -189 81 -105 c74 -97 197 -258 220 -288 7 -10 -2 -13 -40 -13
l-50 0 -138 180 -138 180 -88 0 -89 0 0 -180 0 -180 -45 0 -45 0 0 395 0 395
45 0 45 0 0 -175z m7750 -211 c96 -211 177 -389 178 -394 2 -6 -16 -10 -40
-10 l-44 0 -45 103 -45 102 -224 0 -224 0 -46 -102 -45 -103 -42 0 c-24 0 -43
2 -43 4 0 4 336 740 351 767 7 14 21 19 52 19 l42 -1 175 -385z m-6739 168
c47 -23 84 -68 99 -123 6 -19 10 -127 10 -241 l0 -208 -40 0 -40 0 0 42 0 42
-27 -26 c-61 -56 -133 -74 -232 -57 -53 10 -70 18 -106 53 -90 86 -66 214 47
262 32 13 79 19 182 22 l139 4 -6 49 c-12 96 -61 134 -174 133 -60 0 -81 -5
-132 -31 l-60 -31 -15 24 c-23 33 -21 38 25 64 97 54 243 64 330 22z m399 -29
l0 -57 38 36 c62 60 96 73 192 73 68 0 94 -4 131 -22 62 -31 107 -78 138 -143
34 -73 36 -191 4 -261 -27 -60 -92 -125 -152 -152 -100 -44 -234 -21 -308 53
l-33 32 0 -161 0 -161 -45 0 -45 0 0 403 c0 222 3 407 7 410 3 4 21 7 40 7
l33 0 0 -57z m1090 17 l0 -40 -110 0 -110 0 0 -260 0 -260 -40 0 -40 0 0 260
0 260 -115 0 -115 0 0 33 c0 19 3 37 7 40 3 4 123 7 265 7 l258 0 0 -40z m461
12 c47 -23 84 -68 99 -123 6 -19 10 -127 10 -241 l0 -208 -40 0 -40 0 0 42 0
42 -27 -26 c-61 -56 -133 -74 -232 -57 -53 10 -70 18 -106 53 -90 86 -66 214
47 262 32 13 79 19 182 22 l139 4 -6 49 c-12 96 -61 134 -174 133 -60 0 -81
-5 -132 -31 l-60 -31 -15 24 c-23 33 -21 38 25 64 97 54 243 64 330 22z m1029
-12 l0 -40 -110 0 -110 0 0 -260 0 -260 -40 0 -40 0 0 260 0 260 -115 0 -115
0 0 33 c0 19 3 37 7 40 3 4 123 7 265 7 l258 0 0 -40z m213 -213 c61 -136 114
-244 117 -240 4 4 56 117 115 251 l108 243 36 -3 c24 -2 35 -7 33 -17 -2 -7
-73 -171 -159 -363 -174 -390 -192 -418 -279 -436 -57 -12 -117 -3 -162 23
-37 22 -37 22 -14 57 l18 27 29 -19 c19 -13 47 -20 77 -20 58 0 94 28 128 99
l23 51 -126 283 c-69 155 -129 290 -133 300 -6 16 -2 18 36 15 l44 -3 109
-248z m617 196 l0 -57 38 36 c62 60 96 73 192 73 68 0 94 -4 131 -22 62 -31
107 -78 138 -143 34 -73 36 -191 4 -261 -27 -60 -92 -125 -152 -152 -100 -44
-234 -21 -308 53 l-33 32 0 -161 0 -161 -45 0 -45 0 0 403 c0 222 3 407 7 410
3 4 21 7 40 7 l33 0 0 -57z m1071 30 c100 -45 160 -135 167 -254 6 -102 -14
-162 -76 -228 -64 -68 -126 -94 -222 -94 -118 0 -209 51 -267 151 -21 36 -28
61 -31 127 -5 93 5 131 48 198 35 51 90 93 152 113 59 19 171 13 229 -13z
m727 2 c63 -26 92 -65 92 -126 0 -59 -18 -99 -54 -119 -34 -18 -33 -23 9 -43
74 -35 92 -155 34 -222 -47 -53 -101 -65 -301 -65 l-168 0 0 293 c0 162 3 297
8 302 4 4 81 5 172 2 123 -4 176 -9 208 -22z m1849 10 c67 -20 135 -81 170
-153 24 -48 28 -69 28 -137 -1 -97 -23 -153 -85 -215 -59 -59 -117 -82 -204
-83 -85 0 -144 23 -198 78 l-38 38 0 -166 0 -167 -40 0 -40 0 0 405 0 405 40
0 40 0 0 -51 0 -51 47 41 c75 67 176 87 280 56z m455 -122 l3 -128 66 -3 66
-3 104 130 104 130 44 1 c33 0 41 -3 34 -12 -5 -7 -55 -70 -111 -139 -56 -69
-102 -129 -102 -133 0 -3 50 -68 112 -144 61 -75 116 -143 121 -149 7 -10 -1
-13 -37 -13 l-46 0 -107 130 -108 129 -72 1 -73 0 0 -130 0 -130 -40 0 -40 0
0 295 0 295 40 0 39 0 3 -127z m978 92 l0 -35 -110 0 -110 0 0 -260 0 -260
-40 0 -40 0 0 260 0 260 -115 0 -115 0 0 35 0 35 265 0 265 0 0 -35z m200
-195 c0 -126 3 -230 8 -229 4 0 93 103 197 229 185 223 191 229 228 230 l37 0
0 -295 0 -295 -40 0 -40 0 -2 232 -3 231 -194 -231 c-191 -229 -194 -232 -232
-232 l-39 0 0 295 0 295 40 0 40 0 0 -230z m772 103 l3 -128 66 -3 66 -3 104
130 104 130 44 1 c33 0 41 -3 34 -12 -5 -7 -55 -70 -111 -139 -56 -69 -102
-129 -102 -133 0 -3 50 -68 112 -144 61 -75 116 -143 121 -149 7 -10 -1 -13
-37 -13 l-46 0 -107 130 -108 129 -72 1 -73 0 0 -130 0 -130 -40 0 -40 0 0
295 0 295 40 0 39 0 3 -127z m658 -103 c0 -126 3 -230 8 -229 4 0 93 103 197
229 185 223 191 229 228 230 l37 0 0 -295 0 -295 -40 0 -40 0 -2 232 -3 231
-194 -231 c-191 -229 -194 -232 -232 -232 l-39 0 0 295 0 295 40 0 40 0 0
-230z"/>
<path d="M14451 9389 c-321 -63 -579 -289 -672 -589 -27 -88 -33 -259 -10
-350 20 -85 94 -228 153 -300 174 -209 490 -326 754 -279 309 54 551 252 641
524 23 69 27 97 27 210 1 145 -11 198 -70 320 -91 186 -245 326 -454 412 -138
57 -259 74 -369 52z"/>
<path d="M12343 5998 l-91 -203 94 -3 c52 -1 136 -1 188 0 l93 3 -90 203 c-50
111 -93 202 -97 202 -4 0 -48 -91 -97 -202z"/>
<path d="M5644 5746 c-97 -97 38 -215 187 -164 76 26 119 80 119 151 l0 47
-136 0 -136 0 -34 -34z"/>
<path d="M6493 6031 c-51 -13 -96 -44 -128 -90 -26 -37 -30 -53 -33 -119 -4
-89 10 -133 59 -181 41 -42 90 -61 154 -61 91 0 168 49 201 129 18 42 20 144
4 186 -38 100 -154 162 -257 136z"/>
<path d="M7594 5746 c-97 -97 38 -215 187 -164 76 26 119 80 119 151 l0 47
-136 0 -136 0 -34 -34z"/>
<path d="M9903 6031 c-51 -13 -96 -44 -128 -90 -26 -37 -30 -53 -33 -119 -4
-89 10 -133 59 -181 41 -42 90 -61 154 -61 91 0 168 49 201 129 18 42 20 144
4 186 -38 100 -154 162 -257 136z"/>
<path d="M10599 6025 c-193 -60 -196 -372 -3 -435 60 -20 147 -8 196 26 151
106 116 358 -56 409 -60 18 -77 18 -137 0z"/>
<path d="M11220 5940 l0 -100 103 0 c160 0 217 26 217 98 0 81 -42 102 -205
102 l-115 0 0 -100z"/>
<path d="M11222 5678 l3 -103 80 -3 c43 -2 108 2 143 7 83 13 112 38 112 96 0
85 -41 105 -223 105 l-118 0 3 -102z"/>
<path d="M13207 6027 c-93 -29 -150 -113 -149 -221 1 -137 87 -226 217 -226
130 0 217 90 217 225 0 77 -24 137 -74 179 -59 51 -135 66 -211 43z"/>
</g>
</svg>
